<?xml version="1.0" encoding="UTF-8"?>
<svg id="Layer_1" data-name="Layer 1" xmlns="http://www.w3.org/2000/svg" viewBox="0 0 320.67 54.4">
  <defs>
    <style>
      .cls-1 {
        fill: #ed1e2c;
      }

      .cls-2 {
        fill: #e01f26;
      }
    </style>
  </defs>
  <g>
    <path class="cls-1" d="M59.68,46.66c-1.96-2.16-2.94-4.98-2.94-8.46v-1.41c0-.44.22-.67.67-.67h2.14c.44,0,.67.22.67.67v1.27c0,2.63.66,4.75,1.97,6.35,1.31,1.6,3.02,2.41,5.12,2.41s3.83-.78,5.22-2.34c1.38-1.56,2.07-3.59,2.07-6.09,0-1.65-.32-3.08-.97-4.28s-1.47-2.24-2.47-3.11c-1-.87-2.64-2.17-4.92-3.91-2.32-1.74-4.09-3.18-5.32-4.31-1.23-1.14-2.24-2.5-3.04-4.08-.8-1.58-1.2-3.47-1.2-5.65,0-3.43.96-6.13,2.88-8.09,1.92-1.96,4.39-2.94,7.42-2.94,3.25,0,5.86,1.09,7.83,3.28,1.96,2.18,2.94,5.06,2.94,8.63v1.67c0,.45-.22.67-.67.67h-2.21c-.45,0-.67-.22-.67-.67v-1.67c0-2.63-.66-4.76-1.97-6.39-1.32-1.63-3.07-2.44-5.25-2.44-1.96,0-3.59.7-4.88,2.11-1.29,1.4-1.94,3.38-1.94,5.92,0,1.52.28,2.83.84,3.95.56,1.12,1.36,2.16,2.41,3.14,1.05.98,2.64,2.27,4.78,3.88,2.63,1.96,4.59,3.54,5.89,4.75,1.29,1.2,2.29,2.52,2.98,3.95.69,1.43,1.04,3.14,1.04,5.15,0,3.66-.99,6.57-2.98,8.73-1.98,2.16-4.56,3.24-7.73,3.24s-5.73-1.08-7.69-3.24Z"/>
    <path class="cls-1" d="M103.23,5.7h-15.85c-.18,0-.27.09-.27.27v18.13c0,.18.09.27.27.27h10.17c.44,0,.67.22.67.67v1.81c0,.45-.22.67-.67.67h-10.17c-.18,0-.27.09-.27.27v18.19c0,.18.09.27.27.27h15.85c.45,0,.67.22.67.67v1.81c0,.45-.22.67-.67.67h-19c-.45,0-.67-.22-.67-.67V3.22c0-.45.22-.67.67-.67h19c.45,0,.67.22.67.67v1.81c0,.45-.22.67-.67.67Z"/>
    <path class="cls-1" d="M109.36,48.7V3.22c0-.45.22-.67.67-.67h2.21c.45,0,.67.22.67.67v45.48c0,.45-.22.67-.67.67h-2.21c-.45,0-.67-.22-.67-.67Z"/>
    <path class="cls-1" d="M121.34,46.66c-1.96-2.16-2.94-4.98-2.94-8.46v-1.41c0-.44.22-.67.67-.67h2.14c.44,0,.67.22.67.67v1.27c0,2.63.66,4.75,1.97,6.35,1.31,1.6,3.02,2.41,5.12,2.41s3.83-.78,5.22-2.34c1.38-1.56,2.07-3.59,2.07-6.09,0-1.65-.32-3.08-.97-4.28s-1.47-2.24-2.47-3.11c-1-.87-2.64-2.17-4.92-3.91-2.32-1.74-4.09-3.18-5.32-4.31-1.23-1.14-2.24-2.5-3.04-4.08-.8-1.58-1.2-3.47-1.2-5.65,0-3.43.96-6.13,2.88-8.09,1.92-1.96,4.39-2.94,7.42-2.94,3.25,0,5.86,1.09,7.83,3.28,1.96,2.18,2.94,5.06,2.94,8.63v1.67c0,.45-.22.67-.67.67h-2.21c-.45,0-.67-.22-.67-.67v-1.67c0-2.63-.66-4.76-1.97-6.39-1.32-1.63-3.07-2.44-5.25-2.44-1.96,0-3.59.7-4.88,2.11-1.29,1.4-1.94,3.38-1.94,5.92,0,1.52.28,2.83.84,3.95.56,1.12,1.36,2.16,2.41,3.14,1.05.98,2.64,2.27,4.78,3.88,2.63,1.96,4.59,3.54,5.89,4.75,1.29,1.2,2.28,2.52,2.98,3.95.69,1.43,1.04,3.14,1.04,5.15,0,3.66-.99,6.57-2.98,8.73-1.98,2.16-4.56,3.24-7.73,3.24s-5.73-1.08-7.69-3.24Z"/>
    <path class="cls-1" d="M166.19,2.55h2.27c.45,0,.67.22.67.67v45.48c0,.45-.22.67-.67.67h-2.21c-.45,0-.67-.22-.67-.67V10.78c0-.13-.05-.2-.13-.2s-.16.04-.2.13l-7.36,16.32c-.13.36-.36.54-.67.54-.36,0-.6-.16-.74-.47l-7.42-16.25c-.09-.09-.17-.13-.23-.13s-.1.07-.1.2v37.79c0,.45-.22.67-.67.67h-2.21c-.45,0-.67-.22-.67-.67V3.22c0-.45.22-.67.67-.67h2.27c.36,0,.6.16.74.47l8.16,17.52c.04.09.11.13.2.13s.16-.04.2-.13l8.03-17.52c.13-.31.38-.47.74-.47Z"/>
    <path class="cls-1" d="M178.26,46.8c-2.03-2.07-3.04-4.78-3.04-8.13V13.32c0-3.39,1-6.12,3.01-8.19,2.01-2.07,4.66-3.11,7.96-3.11s5.97,1.04,8.03,3.11c2.05,2.07,3.08,4.81,3.08,8.19v25.35c0,3.34-1.03,6.05-3.08,8.13-2.05,2.07-4.73,3.11-8.03,3.11s-5.9-1.04-7.93-3.11ZM191.64,44.56c1.4-1.47,2.11-3.39,2.11-5.75V13.19c0-2.36-.7-4.29-2.11-5.79-1.4-1.49-3.22-2.24-5.45-2.24s-3.97.75-5.35,2.24c-1.38,1.5-2.07,3.42-2.07,5.79v25.62c0,2.36.69,4.28,2.07,5.75,1.38,1.47,3.17,2.21,5.35,2.21s4.05-.74,5.45-2.21Z"/>
    <path class="cls-1" d="M205.18,46.66c-1.96-2.16-2.94-4.98-2.94-8.46v-1.41c0-.44.22-.67.67-.67h2.14c.45,0,.67.22.67.67v1.27c0,2.63.66,4.75,1.97,6.35,1.32,1.6,3.02,2.41,5.12,2.41s3.83-.78,5.22-2.34c1.38-1.56,2.07-3.59,2.07-6.09,0-1.65-.32-3.08-.97-4.28s-1.47-2.24-2.47-3.11c-1-.87-2.64-2.17-4.92-3.91-2.32-1.74-4.09-3.18-5.32-4.31-1.23-1.14-2.24-2.5-3.04-4.08-.8-1.58-1.2-3.47-1.2-5.65,0-3.43.96-6.13,2.88-8.09,1.92-1.96,4.39-2.94,7.42-2.94,3.25,0,5.86,1.09,7.83,3.28,1.96,2.18,2.94,5.06,2.94,8.63v1.67c0,.45-.22.67-.67.67h-2.21c-.45,0-.67-.22-.67-.67v-1.67c0-2.63-.66-4.76-1.97-6.39-1.32-1.63-3.07-2.44-5.25-2.44-1.96,0-3.59.7-4.88,2.11-1.29,1.4-1.94,3.38-1.94,5.92,0,1.52.28,2.83.84,3.95.56,1.12,1.36,2.16,2.41,3.14,1.05.98,2.64,2.27,4.78,3.88,2.63,1.96,4.59,3.54,5.89,4.75,1.29,1.2,2.28,2.52,2.98,3.95.69,1.43,1.04,3.14,1.04,5.15,0,3.66-.99,6.57-2.98,8.73-1.98,2.16-4.56,3.24-7.73,3.24s-5.73-1.08-7.69-3.24Z"/>
    <path class="cls-1" d="M249.16,3.22v1.81c0,.45-.22.67-.67.67h-8.9c-.18,0-.27.09-.27.27v42.74c0,.45-.22.67-.67.67h-2.21c-.45,0-.67-.22-.67-.67V5.96c0-.18-.09-.27-.27-.27h-8.36c-.45,0-.67-.22-.67-.67v-1.81c0-.45.22-.67.67-.67h21.34c.45,0,.67.22.67.67Z"/>
    <path class="cls-1" d="M268.12,48.77l-1.81-8.76c0-.09-.03-.16-.1-.2-.07-.04-.15-.07-.23-.07h-13.11c-.09,0-.17.02-.23.07-.07.04-.1.11-.1.2l-1.81,8.76c-.04.4-.29.6-.74.6h-2.21c-.22,0-.39-.07-.5-.2-.11-.13-.15-.31-.1-.54l10.17-45.48c.09-.4.33-.6.74-.6h2.68c.45,0,.69.2.74.6l10.23,45.48v.13c0,.4-.2.6-.6.6h-2.27c-.4,0-.65-.2-.74-.6ZM253.48,36.8h11.84c.13,0,.2-.09.2-.27l-5.95-28.29c-.04-.13-.09-.2-.13-.2s-.09.07-.13.2l-6.02,28.29c0,.18.07.27.2.27Z"/>
    <path class="cls-1" d="M292.48,3.22v1.81c0,.45-.22.67-.67.67h-8.9c-.18,0-.27.09-.27.27v42.74c0,.45-.22.67-.67.67h-2.21c-.45,0-.67-.22-.67-.67V5.96c0-.18-.09-.27-.27-.27h-8.36c-.45,0-.67-.22-.67-.67v-1.81c0-.45.22-.67.67-.67h21.34c.45,0,.67.22.67.67Z"/>
    <path class="cls-1" d="M298.73,46.66c-1.96-2.16-2.94-4.98-2.94-8.46v-1.41c0-.44.22-.67.67-.67h2.14c.45,0,.67.22.67.67v1.27c0,2.63.66,4.75,1.97,6.35,1.32,1.6,3.02,2.41,5.12,2.41s3.83-.78,5.22-2.34c1.38-1.56,2.07-3.59,2.07-6.09,0-1.65-.32-3.08-.97-4.28s-1.47-2.24-2.47-3.11c-1-.87-2.64-2.17-4.92-3.91-2.32-1.74-4.09-3.18-5.32-4.31-1.23-1.14-2.24-2.5-3.04-4.08-.8-1.58-1.2-3.47-1.2-5.65,0-3.43.96-6.13,2.88-8.09,1.92-1.96,4.39-2.94,7.42-2.94,3.25,0,5.86,1.09,7.83,3.28,1.96,2.18,2.94,5.06,2.94,8.63v1.67c0,.45-.22.67-.67.67h-2.21c-.45,0-.67-.22-.67-.67v-1.67c0-2.63-.66-4.76-1.97-6.39-1.32-1.63-3.07-2.44-5.25-2.44-1.96,0-3.59.7-4.88,2.11-1.29,1.4-1.94,3.38-1.94,5.92,0,1.52.28,2.83.84,3.95.56,1.12,1.36,2.16,2.41,3.14,1.05.98,2.64,2.27,4.78,3.88,2.63,1.96,4.59,3.54,5.89,4.75,1.29,1.2,2.28,2.52,2.98,3.95.69,1.43,1.04,3.14,1.04,5.15,0,3.66-.99,6.57-2.98,8.73-1.98,2.16-4.56,3.24-7.73,3.24s-5.73-1.08-7.69-3.24Z"/>
  </g>
  <g>
    <path class="cls-2" d="M5.47,49.6h37.53s-3.07-4.16-12.69-18.15c-6.42-9.33-10.25-10.28-18.03-10.28-1.98,0-4.21.06-6.8.06v28.37Z"/>
    <path class="cls-2" d="M5.47,2.25v15.69c1.18,0,2.26-.01,3.3-.03V5.55h40.76v40.76h-4.84c.66.92.96,1.33.97,1.34l1.44,1.96h5.73V2.25H5.47Z"/>
  </g>
</svg>