<?xml version="1.0" encoding="utf-8"?>
<!-- Generator: Adobe Adobe Illustrator 29.2.0, SVG Export Plug-In . SVG Version: 6.00 Build 0)  -->
<svg version="1.1" id="Layer_1" xmlns="http://www.w3.org/2000/svg" xmlns:xlink="http://www.w3.org/1999/xlink" x="0px" y="0px"
	 width="332.9px" height="54.4px" viewBox="0 0 332.9 54.4" style="enable-background:new 0 0 332.9 54.4;" xml:space="preserve">
<style type="text/css">
	.st0{fill:#ED1E2C;}
	.st1{fill:#E01F26;}
</style>
<path class="st0" d="M65.7,46.7c-2-2.2-2.9-5-2.9-8.5v-1.4c0-0.4,0.2-0.7,0.7-0.7h2.1c0.4,0,0.7,0.2,0.7,0.7v1.3
	c0,2.6,0.7,4.8,2,6.3c1.3,1.6,3,2.4,5.1,2.4s3.8-0.8,5.2-2.3c1.4-1.6,2.1-3.6,2.1-6.1c0-1.7-0.3-3.1-1-4.3s-1.5-2.2-2.5-3.1
	s-2.6-2.2-4.9-3.9c-2.3-1.7-4.1-3.2-5.3-4.3c-1.2-1.1-2.2-2.5-3-4.1c-0.8-1.6-1.2-3.5-1.2-5.6c0-3.4,1-6.1,2.9-8.1
	C67.5,3,69.9,2,73,2c3.2,0,5.9,1.1,7.8,3.3c2,2.2,2.9,5.1,2.9,8.6v1.7c0,0.4-0.2,0.7-0.7,0.7h-2.2c-0.4,0-0.7-0.2-0.7-0.7v-1.7
	c0-2.6-0.7-4.8-2-6.4c-1.3-1.6-3.1-2.4-5.2-2.4c-2,0-3.6,0.7-4.9,2.1c-1.3,1.4-1.9,3.4-1.9,5.9c0,1.5,0.3,2.8,0.8,3.9
	c0.6,1.1,1.4,2.2,2.4,3.1s2.6,2.3,4.8,3.9c2.6,2,4.6,3.5,5.9,4.8c1.3,1.2,2.3,2.5,3,4s1,3.1,1,5.2c0,3.7-1,6.6-3,8.7
	c-2,2.2-4.6,3.2-7.7,3.2S67.7,48.8,65.7,46.7L65.7,46.7z"/>
<path class="st0" d="M109.2,5.7H93.4c-0.2,0-0.3,0.1-0.3,0.3v18.1c0,0.2,0.1,0.3,0.3,0.3h10.2c0.4,0,0.7,0.2,0.7,0.7v1.8
	c0,0.5-0.2,0.7-0.7,0.7H93.4c-0.2,0-0.3,0.1-0.3,0.3V46c0,0.2,0.1,0.3,0.3,0.3h15.8c0.4,0,0.7,0.2,0.7,0.7v1.8
	c0,0.5-0.2,0.7-0.7,0.7h-19c-0.4,0-0.7-0.2-0.7-0.7V3.2c0-0.5,0.2-0.7,0.7-0.7h19c0.4,0,0.7,0.2,0.7,0.7V5
	C109.9,5.5,109.7,5.7,109.2,5.7z"/>
<path class="st0" d="M115.4,48.7V3.2c0-0.5,0.2-0.7,0.7-0.7h2.2c0.4,0,0.7,0.2,0.7,0.7v45.5c0,0.5-0.2,0.7-0.7,0.7H116
	C115.6,49.4,115.4,49.1,115.4,48.7z"/>
<path class="st0" d="M127.3,46.7c-2-2.2-2.9-5-2.9-8.5v-1.4c0-0.4,0.2-0.7,0.7-0.7h2.1c0.4,0,0.7,0.2,0.7,0.7v1.3
	c0,2.6,0.7,4.8,2,6.3s3,2.4,5.1,2.4s3.8-0.8,5.2-2.3c1.4-1.6,2.1-3.6,2.1-6.1c0-1.7-0.3-3.1-1-4.3s-1.5-2.2-2.5-3.1
	s-2.6-2.2-4.9-3.9c-2.3-1.7-4.1-3.2-5.3-4.3c-1.2-1.1-2.2-2.5-3-4.1s-1.2-3.5-1.2-5.6c0-3.4,1-6.1,2.9-8.1c1.9-2,4.4-2.9,7.4-2.9
	c3.2,0,5.9,1.1,7.8,3.3c2,2.2,2.9,5.1,2.9,8.6v1.7c0,0.4-0.2,0.7-0.7,0.7h-2.2c-0.4,0-0.7-0.2-0.7-0.7v-1.7c0-2.6-0.7-4.8-2-6.4
	c-1.3-1.6-3.1-2.4-5.2-2.4c-2,0-3.6,0.7-4.9,2.1c-1.3,1.4-1.9,3.4-1.9,5.9c0,1.5,0.3,2.8,0.8,3.9s1.4,2.2,2.4,3.1
	c1,1,2.6,2.3,4.8,3.9c2.6,2,4.6,3.5,5.9,4.8c1.3,1.2,2.3,2.5,3,4c0.7,1.4,1,3.1,1,5.2c0,3.7-1,6.6-3,8.7c-2,2.2-4.6,3.2-7.7,3.2
	S129.3,48.8,127.3,46.7L127.3,46.7z"/>
<path class="st0" d="M172.2,2.5h2.3c0.4,0,0.7,0.2,0.7,0.7v45.5c0,0.5-0.2,0.7-0.7,0.7h-2.2c-0.4,0-0.7-0.2-0.7-0.7V10.8
	c0-0.1-0.1-0.2-0.1-0.2s-0.2,0-0.2,0.1L163.9,27c-0.1,0.4-0.4,0.5-0.7,0.5c-0.4,0-0.6-0.2-0.7-0.5l-7.4-16.2
	c-0.1-0.1-0.2-0.1-0.2-0.1s-0.1,0.1-0.1,0.2v37.8c0,0.5-0.2,0.7-0.7,0.7h-2.2c-0.4,0-0.7-0.2-0.7-0.7V3.2c0-0.5,0.2-0.7,0.7-0.7h2.3
	c0.4,0,0.6,0.2,0.7,0.5l8.2,17.5c0,0.1,0.1,0.1,0.2,0.1s0.2,0,0.2-0.1l8-17.5C171.6,2.7,171.8,2.6,172.2,2.5z"/>
<path class="st0" d="M183.5,46.8c-2-2.1-3-4.8-3-8.1V13.3c0-3.4,1-6.1,3-8.2s4.7-3.1,8-3.1s6,1,8,3.1c2.1,2.1,3.1,4.8,3.1,8.2v25.3
	c0,3.3-1,6-3.1,8.1c-2.1,2.1-4.7,3.1-8,3.1S185.5,48.9,183.5,46.8L183.5,46.8z M196.9,44.6c1.4-1.5,2.1-3.4,2.1-5.8V13.2
	c0-2.4-0.7-4.3-2.1-5.8c-1.4-1.5-3.2-2.2-5.4-2.2s-4,0.8-5.4,2.2c-1.4,1.5-2.1,3.4-2.1,5.8v25.6c0,2.4,0.7,4.3,2.1,5.8
	s3.2,2.2,5.4,2.2S195.5,46,196.9,44.6z"/>
<path class="st0" d="M215.7,46.7c-2-2.2-2.9-5-2.9-8.5v-1.4c0-0.4,0.2-0.7,0.7-0.7h2.1c0.4,0,0.7,0.2,0.7,0.7v1.3
	c0,2.6,0.7,4.8,2,6.3c1.3,1.6,3,2.4,5.1,2.4s3.8-0.8,5.2-2.3c1.4-1.6,2.1-3.6,2.1-6.1c0-1.7-0.3-3.1-1-4.3s-1.5-2.2-2.5-3.1
	s-2.6-2.2-4.9-3.9c-2.3-1.7-4.1-3.2-5.3-4.3c-1.2-1.1-2.2-2.5-3-4.1c-0.8-1.6-1.2-3.5-1.2-5.6c0-3.4,1-6.1,2.9-8.1S219.9,2,223,2
	c3.2,0,5.9,1.1,7.8,3.3c2,2.2,2.9,5.1,2.9,8.6v1.7c0,0.4-0.2,0.7-0.7,0.7h-2.2c-0.4,0-0.7-0.2-0.7-0.7v-1.7c0-2.6-0.7-4.8-2-6.4
	c-1.3-1.6-3.1-2.4-5.2-2.4c-2,0-3.6,0.7-4.9,2.1c-1.3,1.4-1.9,3.4-1.9,5.9c0,1.5,0.3,2.8,0.8,3.9s1.4,2.2,2.4,3.1s2.6,2.3,4.8,3.9
	c2.6,2,4.6,3.5,5.9,4.8c1.3,1.2,2.3,2.5,3,4c0.7,1.4,1,3.1,1,5.2c0,3.7-1,6.6-3,8.7c-2,2.2-4.6,3.2-7.7,3.2S217.7,48.8,215.7,46.7
	L215.7,46.7z"/>
<path class="st0" d="M259.7,3.2V5c0,0.4-0.2,0.7-0.7,0.7h-8.9c-0.2,0-0.3,0.1-0.3,0.3v42.7c0,0.5-0.2,0.7-0.7,0.7h-2.2
	c-0.4,0-0.7-0.2-0.7-0.7V6c0-0.2-0.1-0.3-0.3-0.3h-8.4c-0.4,0-0.7-0.2-0.7-0.7V3.2c0-0.5,0.2-0.7,0.7-0.7H259
	C259.4,2.5,259.6,2.8,259.7,3.2L259.7,3.2z"/>
<path class="st0" d="M278.6,48.8l-1.8-8.8c0-0.1,0-0.2-0.1-0.2s-0.1-0.1-0.2-0.1h-13.1c-0.1,0-0.2,0-0.2,0.1c-0.1,0-0.1,0.1-0.1,0.2
	l-1.8,8.8c0,0.4-0.3,0.6-0.7,0.6h-2.2c-0.2,0-0.4-0.1-0.5-0.2s-0.1-0.3-0.1-0.5l10.2-45.5c0.1-0.4,0.3-0.6,0.7-0.6h2.7
	c0.5,0,0.7,0.2,0.7,0.6l10.2,45.5v0.1c0,0.4-0.2,0.6-0.6,0.6h-2.3C279,49.4,278.7,49.2,278.6,48.8L278.6,48.8z M264,36.8h11.8
	c0.1,0,0.2-0.1,0.2-0.3l-6-28.3c0-0.1-0.1-0.2-0.1-0.2s-0.1,0.1-0.1,0.2l-6,28.3C263.8,36.7,263.9,36.8,264,36.8L264,36.8z"/>
<path class="st0" d="M303,3.2V5c0,0.4-0.2,0.7-0.7,0.7h-8.9c-0.2,0-0.3,0.1-0.3,0.3v42.7c0,0.5-0.2,0.7-0.7,0.7h-2.2
	c-0.5,0-0.7-0.2-0.7-0.7V6c0-0.2-0.1-0.3-0.3-0.3H281c-0.5,0-0.7-0.2-0.7-0.7V3.2c0-0.5,0.2-0.7,0.7-0.7h21.3
	C302.8,2.5,303,2.8,303,3.2L303,3.2z"/>
<path class="st0" d="M309.2,46.7c-2-2.2-2.9-5-2.9-8.5v-1.4c0-0.4,0.2-0.7,0.7-0.7h2.1c0.5,0,0.7,0.2,0.7,0.7v1.3
	c0,2.6,0.7,4.8,2,6.3c1.3,1.6,3,2.4,5.1,2.4s3.8-0.8,5.2-2.3c1.4-1.6,2.1-3.6,2.1-6.1c0-1.7-0.3-3.1-1-4.3s-1.5-2.2-2.5-3.1
	s-2.6-2.2-4.9-3.9c-2.3-1.7-4.1-3.2-5.3-4.3c-1.2-1.1-2.2-2.5-3-4.1c-0.8-1.6-1.2-3.5-1.2-5.6c0-3.4,1-6.1,2.9-8.1s4.4-2.9,7.4-2.9
	c3.2,0,5.9,1.1,7.8,3.3c2,2.2,2.9,5.1,2.9,8.6v1.7c0,0.4-0.2,0.7-0.7,0.7h-2.2c-0.5,0-0.7-0.2-0.7-0.7v-1.7c0-2.6-0.7-4.8-2-6.4
	c-1.3-1.6-3.1-2.4-5.2-2.4c-2,0-3.6,0.7-4.9,2.1c-1.3,1.4-1.9,3.4-1.9,5.9c0,1.5,0.3,2.8,0.8,3.9s1.4,2.2,2.4,3.1
	c1,1,2.6,2.3,4.8,3.9c2.6,2,4.6,3.5,5.9,4.8c1.3,1.2,2.3,2.5,3,4c0.7,1.4,1,3.1,1,5.2c0,3.7-1,6.6-3,8.7c-2,2.2-4.6,3.2-7.7,3.2
	S311.2,48.8,309.2,46.7L309.2,46.7z"/>
<g>
	<path class="st1" d="M5.5,49.6H43c0,0-3.1-4.2-12.7-18.1c-6.4-9.3-10.2-10.3-18-10.3c-2,0-4.2,0.1-6.8,0.1L5.5,49.6L5.5,49.6z"/>
	<path class="st1" d="M5.5,2.2v15.7c1.2,0,2.3,0,3.3,0V5.6h40.8v40.8h-4.8c0.7,0.9,1,1.3,1,1.3l1.4,2h5.7V2.2H5.5z"/>
</g>
</svg>
